<svg width="120" height="120" viewBox="0 0 120 120" fill="none" xmlns="http://www.w3.org/2000/svg">
<path d="M0 16C0 7.16344 7.16344 0 16 0H104C112.837 0 120 7.16344 120 16V104C120 112.837 112.837 120 104 120H16C7.16344 120 0 112.837 0 104V16Z" fill="#232426"/>
<circle cx="16.8004" cy="45.6002" r="2.4" fill="#FBCC26"/>
<circle cx="16.8004" cy="60.0001" r="2.4" fill="#FBCC26"/>
<circle cx="16.8004" cy="74.4" r="2.4" fill="#FBCC26"/>
<circle cx="31.1998" cy="45.6002" r="2.4" fill="#FBCC26"/>
<circle cx="31.1998" cy="60.0001" r="2.4" fill="#FBCC26"/>
<circle cx="31.1998" cy="74.4" r="2.4" fill="#FBCC26"/>
<circle cx="59.9996" cy="45.6002" r="2.4" fill="#FBCC26"/>
<circle cx="59.9996" cy="60.0001" r="2.4" fill="#FBCC26"/>
<circle cx="59.9996" cy="74.4" r="2.4" fill="#FBCC26"/>
<circle cx="74.4" cy="45.6002" r="2.4" fill="#FBCC26"/>
<circle cx="74.4" cy="60.0001" r="2.4" fill="#FBCC26"/>
<circle cx="74.4" cy="74.4" r="2.4" fill="#FBCC26"/>
<circle cx="88.8004" cy="45.6002" r="2.4" fill="#FBCC26"/>
<circle cx="88.8004" cy="60.0001" r="2.4" fill="#FBCC26"/>
<circle cx="88.8004" cy="74.4" r="2.4" fill="#FBCC26"/>
<circle cx="103.2" cy="45.6002" r="2.4" fill="#FBCC26"/>
<circle cx="103.2" cy="60.0001" r="2.4" fill="#FBCC26"/>
<circle cx="103.2" cy="74.4" r="2.4" fill="#FBCC26"/>
<circle cx="45.6002" cy="45.6002" r="2.4" fill="#FBCC26"/>
<circle cx="45.6002" cy="60.0001" r="2.4" fill="#FBCC26"/>
<circle cx="45.6002" cy="74.4" r="2.4" fill="#FBCC26"/>
<circle cx="16.8004" cy="31.1998" r="2.4" fill="#FBCC26"/>
<circle cx="31.1998" cy="31.1998" r="2.4" fill="#FBCC26"/>
<circle cx="59.9996" cy="31.1998" r="2.4" fill="#FBCC26"/>
<circle cx="74.4" cy="31.1998" r="2.4" fill="#FBCC26"/>
<circle cx="88.8004" cy="31.1998" r="2.4" fill="#FBCC26"/>
<circle cx="103.2" cy="31.1998" r="2.4" fill="#FBCC26"/>
<circle cx="45.6002" cy="31.1998" r="2.4" fill="#FBCC26"/>
<circle cx="16.8004" cy="16.7999" r="2.4" fill="#FBCC26"/>
<circle cx="31.1998" cy="16.7999" r="2.4" fill="#FBCC26"/>
<circle cx="59.9996" cy="16.7999" r="2.4" fill="#FBCC26"/>
<circle cx="74.4" cy="16.7999" r="2.4" fill="#FBCC26"/>
<circle cx="88.8004" cy="16.7999" r="2.4" fill="#FBCC26"/>
<circle cx="103.2" cy="16.7999" r="2.4" fill="#FBCC26"/>
<circle cx="45.6002" cy="16.7999" r="2.4" fill="#FBCC26"/>
<path d="M18.4012 103.776C19.709 103.776 20.7918 103.403 21.6215 102.728L22.423 103.6H24.4199V103.565L22.5918 101.631C23.1613 100.745 23.4637 99.6204 23.4637 98.2634V97.8907H21.9449V98.2071C21.9449 99.1212 21.8043 99.8806 21.5301 100.506L19.3785 98.2353C20.8902 97.4196 21.4949 96.6181 21.4949 95.6126V95.6056C21.4949 94.2485 20.3559 93.3063 18.7738 93.3063C17.1777 93.3063 16.0035 94.2978 16.0035 95.6337V95.6407C16.0105 96.3368 16.348 96.9415 17.248 97.954L16.8684 98.1579C15.5324 98.8751 14.9137 99.7681 14.9137 100.928V100.935C14.9137 102.637 16.3059 103.776 18.4012 103.776ZM17.5574 95.7181V95.711C17.5574 95.029 18.0707 94.5368 18.7738 94.5368C19.484 94.5368 19.9832 95.0149 19.9832 95.704V95.711C19.9832 96.3438 19.5754 96.822 18.5559 97.3634C17.8598 96.611 17.5574 96.2103 17.5574 95.7181ZM16.5871 100.795V100.788C16.5871 100.12 16.9387 99.5923 17.8598 99.0649L18.1199 98.9173L20.6723 101.695C20.1379 102.166 19.4277 102.447 18.577 102.447C17.3957 102.447 16.5871 101.786 16.5871 100.795ZM30.7129 103.748C31.7887 103.748 32.6113 103.213 33.0332 102.334H33.0754V103.6H34.8262V93.454H33.0754V97.4267H33.0332C32.6113 96.5337 31.7605 95.9923 30.7059 95.9923C28.8355 95.9923 27.6332 97.4618 27.6332 99.8665V99.8735C27.6332 102.271 28.8285 103.748 30.7129 103.748ZM31.2402 102.271C30.1152 102.271 29.4191 101.357 29.4191 99.8735V99.8665C29.4191 98.3829 30.1223 97.4688 31.2402 97.4688C32.316 97.4688 33.0754 98.411 33.0754 99.8665V99.8735C33.0754 101.336 32.323 102.271 31.2402 102.271ZM39.5723 103.748C41.5199 103.748 42.6168 102.595 42.8488 101.449L42.8699 101.371H41.2316L41.2176 101.42C41.0488 101.92 40.4793 102.384 39.6074 102.384C38.4684 102.384 37.7512 101.61 37.723 100.302H42.9402V99.7399C42.9402 97.4899 41.6184 95.9923 39.4879 95.9923C37.3574 95.9923 35.9863 97.5392 35.9863 99.8876V99.8946C35.9863 102.264 37.3363 103.748 39.5723 103.748ZM39.509 97.3634C40.4371 97.3634 41.1121 97.954 41.2387 99.1353H37.7441C37.8848 97.9892 38.5809 97.3634 39.509 97.3634ZM46.9832 103.748C48.8113 103.748 50.1121 102.806 50.1121 101.399V101.392C50.1121 100.309 49.5145 99.7048 47.9746 99.3603L46.7301 99.086C45.9566 98.9103 45.6684 98.629 45.6684 98.2001V98.1931C45.6684 97.6446 46.1535 97.286 46.927 97.286C47.7426 97.286 48.2207 97.722 48.298 98.3196L48.3051 98.3759H49.9363L49.9293 98.2985C49.866 97.0118 48.7832 95.9923 46.927 95.9923C45.127 95.9923 43.9387 96.9134 43.9387 98.2774V98.2845C43.9387 99.3884 44.6559 100.084 46.0832 100.401L47.3207 100.675C48.0941 100.851 48.3543 101.104 48.3543 101.554V101.561C48.3543 102.109 47.841 102.454 46.9902 102.454C46.1043 102.454 45.6191 102.074 45.4855 101.434L45.4715 101.371H43.7488L43.7559 101.434C43.9105 102.82 45.0285 103.748 46.9832 103.748ZM52.1582 95.0782C52.7066 95.0782 53.1285 94.6423 53.1285 94.122C53.1285 93.5876 52.7066 93.1587 52.1582 93.1587C51.6098 93.1587 51.1809 93.5876 51.1809 94.122C51.1809 94.6423 51.6098 95.0782 52.1582 95.0782ZM51.2793 103.6H53.0301V96.147H51.2793V103.6ZM57.8816 106.209C60.0402 106.209 61.3973 105.077 61.3973 103.389V96.147L59.6465 96.147V97.4126H59.6043C59.1824 96.5548 58.3668 95.9923 57.3121 95.9923C55.4277 95.9923 54.2113 97.4407 54.2113 99.7962V99.8032C54.2113 102.124 55.4137 103.558 57.284 103.558C58.3527 103.558 59.1965 103.052 59.6113 102.257H59.6465V103.333C59.6465 104.282 59.0207 104.887 57.8816 104.887C56.9676 104.887 56.3699 104.563 56.1801 104.134L56.159 104.078H54.4363L54.4504 104.142C54.6613 105.309 55.9059 106.209 57.8816 106.209ZM57.8324 102.208C56.7074 102.208 55.9973 101.301 55.9973 99.8313V99.8243C55.9973 98.3759 56.7074 97.4688 57.8324 97.4688C58.9152 97.4688 59.6535 98.3899 59.6535 99.8313V99.8384C59.6535 101.287 58.9223 102.208 57.8324 102.208ZM62.8316 103.6L64.5824 103.6V99.2759C64.5824 98.2001 65.2223 97.4688 66.2277 97.4688C67.2262 97.4688 67.7184 98.0665 67.7184 99.1282V103.6H69.4691V98.7767C69.4691 97.047 68.534 95.9923 66.8957 95.9923C65.7637 95.9923 65.0043 96.5126 64.6176 97.3142H64.5824V96.147H62.8316V103.6ZM74.152 103.748C76.0996 103.748 77.1965 102.595 77.4285 101.449L77.4496 101.371H75.8113L75.7973 101.42C75.6285 101.92 75.059 102.384 74.1871 102.384C73.0481 102.384 72.3309 101.61 72.3027 100.302H77.5199V99.7399C77.5199 97.4899 76.1981 95.9923 74.0676 95.9923C71.9371 95.9923 70.566 97.5392 70.566 99.8876V99.8946C70.566 102.264 71.916 103.748 74.152 103.748ZM74.0887 97.3634C75.0168 97.3634 75.6918 97.954 75.8184 99.1353H72.3238C72.4645 97.9892 73.1606 97.3634 74.0887 97.3634ZM78.652 103.6H80.4027V99.2759C80.4027 98.172 81.0004 97.5462 81.9918 97.5462C82.2871 97.5462 82.5543 97.5884 82.702 97.6446V96.0626C82.5684 96.0274 82.3645 95.9923 82.1465 95.9923C81.2887 95.9923 80.6699 96.5337 80.4379 97.4337H80.4027V96.147H78.652V103.6Z" fill="#FAFAFA"/>
</svg>
