<svg width="56" height="56" viewBox="0 0 56 56" fill="none" xmlns="http://www.w3.org/2000/svg">
<rect width="56" height="56" rx="16" fill="#191413"/>
<path fill-rule="evenodd" clip-rule="evenodd" d="M40.4221 25.617C33.6529 21.5969 22.4873 21.2273 16.0253 23.1885C14.9876 23.5032 13.8903 22.9174 13.5758 21.8798C13.2614 20.8416 13.8467 19.745 14.8851 19.4295C22.303 17.1779 34.6341 17.6127 42.4269 22.2386C43.3605 22.7928 43.6667 23.9983 43.1133 24.9301C42.5596 25.8635 41.3532 26.1712 40.4221 25.617ZM40.2004 31.5712C39.7257 32.3418 38.7181 32.5833 37.9485 32.1103C32.305 28.6412 23.6995 27.6364 17.0229 29.6631C16.157 29.9246 15.2424 29.4364 14.9796 28.5722C14.7186 27.7063 15.2071 26.7936 16.0712 26.5303C23.6985 24.2159 33.1799 25.3369 39.6617 29.3203C40.4313 29.7942 40.6736 30.8023 40.2004 31.5712ZM37.6308 37.2894C37.2536 37.9081 36.4477 38.1022 35.8313 37.725C30.8997 34.711 24.6928 34.0302 17.383 35.7001C16.6786 35.8616 15.9767 35.42 15.8159 34.7158C15.6544 34.0114 16.0943 33.3095 16.8002 33.1488C24.7996 31.3199 31.6616 32.1071 37.1967 35.4894C37.8138 35.8663 38.0082 36.6725 37.6308 37.2894ZM28.0001 7C16.4022 7 7 16.4018 7 27.9997C7 39.5985 16.4022 49 28.0001 49C39.5983 49 49 39.5985 49 27.9997C49 16.4018 39.5983 7 28.0001 7Z" fill="#1ED760"/>
</svg>
