<svg width="327" height="112" viewBox="0 0 327 112" fill="none" xmlns="http://www.w3.org/2000/svg">
<rect x="0.5" y="0.384766" width="326" height="111" rx="4" fill="#EBF3F0"/>
<path d="M220.741 51.2633H223.63L216.408 28.8506H213.488L206.266 51.2633H209.046L211.003 44.833H218.8L220.741 51.2633ZM214.87 32.1434H214.948L218.085 42.4877H211.717L214.87 32.1434Z" fill="#3E6254"/>
<path d="M165.402 45.2991C165.635 49.2753 168.664 51.7294 173.293 51.7294C177.983 51.7294 181.012 49.1666 181.012 45.1438C181.012 41.7733 179.179 39.8784 174.83 38.8067L172.873 38.3097C169.953 37.5797 168.711 36.4614 168.711 34.5199C168.711 32.2367 170.435 30.8699 173.308 30.8699C175.949 30.8699 177.657 32.2367 177.937 34.551H180.608C180.422 30.8233 177.517 28.3848 173.293 28.3848C168.819 28.3848 165.946 30.8544 165.946 34.6752C165.946 37.9214 167.825 39.894 171.988 40.9501L173.914 41.4316C176.943 42.1772 178.247 43.3421 178.247 45.2836C178.247 47.691 176.29 49.2442 173.308 49.2442C170.326 49.2442 168.353 47.7532 168.074 45.2991H165.402Z" fill="#3E6254"/>
<path d="M132.058 42.3324L136.237 51.2633H139.327L134.761 41.7732C137.308 40.9345 138.939 38.527 138.939 35.5915C138.939 31.4289 136.159 28.8506 131.717 28.8506H124.199V51.2633H126.902V42.3324H132.058ZM126.902 31.2891H131.468C134.466 31.2891 136.174 32.8734 136.174 35.6536C136.174 38.4494 134.435 40.0181 131.344 40.0181H126.902V31.2891Z" fill="#3E6254"/>
<path d="M90.6987 51.2633V42.0217L98.1695 28.8506H95.1097L89.4406 39.1017H89.2231L83.5539 28.8506H80.4941L87.965 42.0217V51.2633H90.6987Z" fill="#3E6254"/>
<path d="M235.961 79.9705H235.884L230.075 60.8506H227.201L234.424 83.2633H237.344L244.566 60.8506H241.801L235.961 79.9705Z" fill="#3E6254"/>
<path d="M235.961 47.9705H235.884L230.075 28.8506H227.201L234.424 51.2633H237.344L244.566 28.8506H241.801L235.961 47.9705Z" fill="#A7C0B7"/>
<path d="M223.163 73.8665V70.2476C223.163 64.0503 220.041 60.3848 214.947 60.3848C209.852 60.3848 206.73 64.0503 206.73 70.2476V73.8665C206.73 80.0638 209.852 83.7294 214.947 83.7294C220.041 83.7294 223.163 80.0638 223.163 73.8665ZM214.947 81.1355C211.545 81.1355 209.495 78.5261 209.495 73.851V70.2631C209.495 65.588 211.545 62.9786 214.947 62.9786C218.348 62.9786 220.399 65.588 220.399 70.2631V73.851C220.399 78.5261 218.348 81.1355 214.947 81.1355Z" fill="#A7C0B7"/>
<path d="M201.606 80.716H190.982V60.8506H188.264V83.2633H201.606V80.716Z" fill="#3E6254"/>
<path d="M201.606 48.716H190.982V28.8506H188.264V51.2633H201.606V48.716Z" fill="#A7C0B7"/>
<path d="M174.441 83.2633V74.0217L181.912 60.8506H178.852L173.183 71.1017H172.965L167.296 60.8506H164.236L171.707 74.0217V83.2633H174.441Z" fill="#A7C0B7"/>
<path d="M160.355 73.8665V70.2476C160.355 64.0503 157.233 60.3848 152.138 60.3848C147.044 60.3848 143.922 64.0503 143.922 70.2476V73.8665C143.922 80.0638 147.044 83.7294 152.138 83.7294C157.233 83.7294 160.355 80.0638 160.355 73.8665ZM152.138 81.1355C148.737 81.1355 146.687 78.5261 146.687 73.851V70.2631C146.687 65.588 148.737 62.9786 152.138 62.9786C155.54 62.9786 157.59 65.588 157.59 70.2631V73.851C157.59 78.5261 155.54 81.1355 152.138 81.1355Z" fill="#3E6254"/>
<path d="M160.355 41.8665V38.2476C160.355 32.0503 157.233 28.3848 152.138 28.3848C147.044 28.3848 143.922 32.0503 143.922 38.2476V41.8665C143.922 48.0638 147.044 51.7294 152.138 51.7294C157.233 51.7294 160.355 48.0638 160.355 41.8665ZM152.138 49.1355C148.737 49.1355 146.687 46.5261 146.687 41.851V38.2631C146.687 33.588 148.737 30.9786 152.138 30.9786C155.54 30.9786 157.59 33.588 157.59 38.2631V41.851C157.59 46.5261 155.54 49.1355 152.138 49.1355Z" fill="#A7C0B7"/>
<path d="M125.564 74.6585L125.424 65.5878H125.626L130.13 77.9979H132.273L136.778 65.5878H136.98L136.84 74.6585V83.2633H139.278V60.8506H136.203L131.31 74.7673H131.108L126.185 60.8506H123.125V83.2633H125.564V74.6585Z" fill="#A7C0B7"/>
<path d="M116.06 83.2633H118.949L111.726 60.8506H108.806L101.584 83.2633H104.364L106.321 76.833H114.118L116.06 83.2633ZM110.189 64.1434H110.266L113.404 74.4877H107.036L110.189 64.1434Z" fill="#3E6254"/>
<path d="M116.06 51.2633H118.949L111.726 28.8506H108.806L101.584 51.2633H104.364L106.321 44.833H114.118L116.06 51.2633ZM110.189 32.1434H110.266L113.404 42.4877H107.036L110.189 32.1434Z" fill="#A7C0B7"/>
<path d="M81.6582 77.2991C81.8912 81.2753 84.9199 83.7294 89.5485 83.7294C94.2391 83.7294 97.2679 81.1666 97.2679 77.1438C97.2679 73.7733 95.4351 71.8784 91.0861 70.8067L89.1291 70.3097C86.2091 69.5797 84.9665 68.4614 84.9665 66.5199C84.9665 64.2367 86.6906 62.8699 89.564 62.8699C92.2044 62.8699 93.9129 64.2367 94.1925 66.551H96.864C96.6776 62.8233 93.7732 60.3848 89.5485 60.3848C85.0752 60.3848 82.2018 62.8544 82.2018 66.6752C82.2018 69.9214 84.0812 71.894 88.2438 72.9501L90.1697 73.4316C93.1985 74.1772 94.5032 75.3421 94.5032 77.2836C94.5032 79.691 92.5461 81.2442 89.564 81.2442C86.5818 81.2442 84.6093 79.7532 84.3297 77.2991H81.6582Z" fill="#A7C0B7"/>
</svg>
