<svg width="32" height="32" viewBox="0 0 32 32" fill="none" xmlns="http://www.w3.org/2000/svg">
<path d="M9.04651 24.7103H11.1722V17.2133L17.2187 7.28974H14.7978L10.1448 15.1127H10.0739L5.42097 7.28974H3L9.04651 17.2133V24.7103Z" fill="white"/>
<path d="M22.7055 25C26.6027 25 29 23.0443 29 19.9537V19.9416C29 17.2857 27.5356 15.837 24.04 15.0523L22.1504 14.6298C19.9302 14.1348 18.9028 13.2414 18.9028 11.8169V11.8048C18.9028 10.1268 20.3908 9.0161 22.6701 9.00402C24.8312 9.00402 26.2838 10.0543 26.5436 11.829L26.5672 11.998H28.693L28.6811 11.8169C28.4922 8.96781 26.0594 7 22.7291 7C19.2217 7 16.7416 9.00402 16.7298 11.8652V11.8773C16.7298 14.4245 18.2887 15.9577 21.619 16.7062L23.5085 17.1288C25.8468 17.66 26.827 18.5171 26.827 20.0503V20.0624C26.827 21.8612 25.28 22.996 22.8236 22.996C20.3554 22.996 18.702 21.9215 18.454 20.171L18.4304 20.002H16.3047L16.3165 20.171C16.5291 23.1529 19.0209 25 22.7055 25Z" fill="white"/>
</svg>
