<svg width="56" height="56" viewBox="0 0 56 56" fill="none" xmlns="http://www.w3.org/2000/svg">
<rect width="56" height="56" rx="16" fill="white"/>
<path d="M15.1673 25.167C14.154 25.167 13.334 25.987 13.334 27.0003V29.0003C13.334 30.0137 14.154 30.8337 15.1673 30.8337C16.1807 30.8337 17.0007 30.0137 17.0007 29.0003V27.0003C17.0007 25.987 16.1807 25.167 15.1673 25.167Z" fill="#0066D9"/>
<path d="M40.8333 25.167C39.82 25.167 39 25.987 39 27.0003V29.0003C39 30.0137 39.82 30.8337 40.8333 30.8337C41.8467 30.8337 42.6667 30.0137 42.6667 29.0003V27.0003C42.6667 25.987 41.8467 25.167 40.8333 25.167Z" fill="#4285F4"/>
<path d="M21.4993 31.167C20.486 31.167 19.666 31.987 19.666 33.0003V35.0003C19.666 36.0137 20.486 36.8337 21.4993 36.8337C22.5127 36.8337 23.3327 36.0137 23.3327 35.0003V33.0003C23.3327 31.987 22.5127 31.167 21.4993 31.167Z" fill="#EA4335"/>
<path d="M21.4993 19.167C20.486 19.167 19.666 19.987 19.666 21.0003V27.542H19.6677C19.691 28.5353 20.501 29.3337 21.4993 29.3337C22.4977 29.3337 23.3077 28.5353 23.331 27.542H23.3327V21.0003C23.3327 19.987 22.5127 19.167 21.4993 19.167Z" fill="#EA4335"/>
<path d="M34.4993 19.167C33.486 19.167 32.666 19.987 32.666 21.0003V23.0003C32.666 24.0137 33.486 24.8337 34.4993 24.8337C35.5127 24.8337 36.3327 24.0137 36.3327 23.0003V21.0003C36.3327 19.987 35.5127 19.167 34.4993 19.167Z" fill="#34A853"/>
<path d="M27.9993 13.333C26.986 13.333 26.166 14.153 26.166 15.1663V17.1663C26.166 18.1797 26.986 18.9997 27.9993 18.9997C29.0127 18.9997 29.8327 18.1797 29.8327 17.1663V15.1663C29.8327 14.153 29.0127 13.333 27.9993 13.333Z" fill="#FAB908"/>
<path d="M27.9993 37C26.986 37 26.166 37.82 26.166 38.8333V40.8333C26.166 41.8467 26.986 42.6667 27.9993 42.6667C29.0127 42.6667 29.8327 41.8467 29.8327 40.8333V38.8333C29.8327 37.82 29.0127 37 27.9993 37Z" fill="#FAB908"/>
<path d="M34.4993 26.667C33.486 26.667 32.666 27.487 32.666 28.5003V35.0003C32.666 36.0137 33.486 36.8337 34.4993 36.8337C35.5127 36.8337 36.3327 36.0137 36.3327 35.0003V28.5003C36.3327 27.487 35.5127 26.667 34.4993 26.667Z" fill="#34A853"/>
<path d="M29.8327 22.6663C29.8327 21.653 29.0127 20.833 27.9993 20.833C26.986 20.833 26.166 21.653 26.166 22.6663V27.1113V28.8897V33.333C26.166 34.3463 26.986 35.1663 27.9993 35.1663C29.0127 35.1663 29.8327 34.3463 29.8327 33.333V28.888V27.1113V22.6663Z" fill="#FAB908"/>
</svg>
