<svg width="56" height="56" viewBox="0 0 56 56" fill="none" xmlns="http://www.w3.org/2000/svg">
<rect width="56" height="56" rx="16" fill="url(#paint0_linear)"/>
<path d="M9.00587 29.6781C8.9231 29.6781 8.85741 29.7416 8.84671 29.8323L8.55664 32.0208L8.84671 34.1716C8.85741 34.2623 8.92306 34.3254 9.00587 34.3254C9.08603 34.3254 9.15133 34.2627 9.16411 34.1724L9.50793 32.0208L9.16411 29.8319C9.15173 29.7416 9.08563 29.6781 9.00587 29.6781ZM10.6371 28.4823C10.6235 28.3883 10.5557 28.3234 10.472 28.3234C10.388 28.3234 10.3185 28.3904 10.307 28.4823C10.307 28.4832 9.91704 32.0208 9.91704 32.0208L10.307 35.4809C10.3181 35.5737 10.3876 35.6407 10.472 35.6407C10.5552 35.6407 10.6231 35.5754 10.6367 35.4818L11.0803 32.0208L10.6371 28.4823ZM16.7818 25.2184C16.6218 25.2184 16.4895 25.3485 16.4819 25.5137L16.1713 32.0238L16.4819 36.2309C16.49 36.3953 16.6218 36.525 16.7818 36.525C16.9409 36.525 17.0727 36.3948 17.0821 36.2301V36.2313L17.4332 32.0238L17.0821 25.5137C17.0727 25.3485 16.9408 25.2184 16.7818 25.2184ZM13.6015 27.4811C13.4787 27.4811 13.3784 27.5785 13.3686 27.7086L13.0188 32.0221L13.3686 36.1953C13.3779 36.3245 13.4786 36.422 13.6015 36.422C13.7231 36.422 13.8233 36.3245 13.834 36.1953L14.2316 32.0221L13.834 27.7077C13.8233 27.5785 13.7231 27.4811 13.6015 27.4811ZM20.0136 36.5246C20.212 36.5246 20.3733 36.3656 20.3813 36.1622L20.686 32.0259L20.3818 23.3587C20.3737 23.1553 20.2124 22.9964 20.0141 22.9964C19.814 22.9964 19.6523 23.1557 19.6459 23.3591L19.3759 32.0254L19.6459 36.1635C19.6523 36.3652 19.814 36.5246 20.0136 36.5246ZM26.6301 36.5441C26.9031 36.5441 27.1284 36.3208 27.1334 36.0462L27.3459 32.0284L27.1334 22.0184C27.1287 21.7443 26.9031 21.5206 26.63 21.5206C26.3566 21.5206 26.1309 21.7439 26.1266 22.0189L25.9368 32.025C25.9368 32.0314 26.1266 36.0487 26.1266 36.0487C26.131 36.3207 26.357 36.5441 26.6301 36.5441ZM23.2967 36.5284C23.5343 36.5284 23.7258 36.339 23.7322 36.0975V36.1004L23.9907 32.0268L23.7318 23.2968C23.7254 23.0553 23.5339 22.8663 23.2962 22.8663C23.0569 22.8663 22.8654 23.0553 22.8603 23.2968L22.6303 32.0272L22.8607 36.1C22.8658 36.3389 23.0573 36.5284 23.2967 36.5284ZM15.1854 36.4902C15.3267 36.4902 15.441 36.3779 15.4517 36.2301L15.8262 32.0221L15.4517 28.0192C15.4414 27.8713 15.3271 27.7599 15.1854 27.7599C15.0422 27.7599 14.9278 27.8721 14.9189 28.0209L14.5891 32.0221L14.9189 36.2297C14.9282 36.3779 15.0421 36.4902 15.1854 36.4902ZM12.0304 36.2597C12.1336 36.2597 12.2172 36.1788 12.2292 36.0669L12.6498 32.0212L12.2296 27.823C12.2172 27.7107 12.1336 27.6298 12.0304 27.6298C11.9258 27.6298 11.8422 27.7111 11.8316 27.823L11.4613 32.0212L11.8316 36.0661C11.8418 36.1784 11.9254 36.2597 12.0304 36.2597ZM24.957 23.1515C24.6989 23.1515 24.492 23.3553 24.4869 23.6163L24.277 32.0276L24.4869 36.075C24.492 36.3326 24.6985 36.5364 24.957 36.5364C25.2146 36.5364 25.4203 36.333 25.4262 36.072V36.0754L25.6617 32.028L25.4262 23.6154C25.4202 23.3553 25.2146 23.1515 24.957 23.1515ZM18.3917 36.533C18.57 36.533 18.7172 36.3885 18.7257 36.2042L19.0534 32.025L18.7257 24.026C18.7168 23.8412 18.57 23.6972 18.3917 23.6972C18.2117 23.6972 18.065 23.8417 18.0573 24.026L17.7672 32.025L18.0577 36.2059C18.0649 36.3885 18.2117 36.533 18.3917 36.533ZM22.0502 36.1385V36.1364L22.3317 32.0263L22.0502 23.0672C22.0433 22.8447 21.8667 22.6702 21.6487 22.6702C21.4294 22.6702 21.2528 22.8443 21.2469 23.0672L20.9969 32.0259L21.2473 36.1381C21.2533 36.3584 21.4299 36.5326 21.6488 36.5326C21.8672 36.5326 22.0429 36.3584 22.0502 36.1368V36.1385H22.0502ZM43.3447 26.862C42.6763 26.862 42.0385 26.9963 41.4575 27.2383C41.0693 22.8706 37.3818 19.4443 32.8839 19.4443C31.7833 19.4443 30.7104 19.6596 29.7629 20.0236C29.3948 20.1651 29.2967 20.3108 29.2933 20.5935V35.9745C29.2971 36.2711 29.5287 36.5181 29.8201 36.5474C29.8325 36.5487 43.2573 36.5554 43.3444 36.5554C46.0387 36.5554 48.2233 34.3856 48.2233 31.7089C48.2233 29.0323 46.0391 26.862 43.3447 26.862ZM28.2959 20.5799C28.0028 20.5799 27.7622 20.8189 27.758 21.1125L27.5378 32.0297L27.7584 35.9919C27.7622 36.2813 28.0028 36.5199 28.2959 36.5199C28.5881 36.5199 28.8287 36.2813 28.8329 35.9877V35.9924L29.0723 32.0297L28.8329 21.1117C28.8287 20.8189 28.5881 20.5799 28.2959 20.5799Z" fill="white"/>
<defs>
<linearGradient id="paint0_linear" x1="27.9974" y1="-0.0102648" x2="27.9974" y2="73.4947" gradientUnits="userSpaceOnUse">
<stop stop-color="#F79810"/>
<stop offset="1" stop-color="#F8310E"/>
</linearGradient>
</defs>
</svg>
