<svg width="56" height="56" viewBox="0 0 56 56" fill="none" xmlns="http://www.w3.org/2000/svg">
<rect width="56" height="56" rx="16" fill="white"/>
<path d="M47.1641 18.2189C46.7041 16.4866 45.3489 15.1225 43.6277 14.6595C40.5084 13.8182 28 13.8182 28 13.8182C28 13.8182 15.4917 13.8182 12.3723 14.6595C10.6513 15.1225 9.29581 16.4866 8.83585 18.2189C8 21.3585 8 27.9091 8 27.9091C8 27.9091 8 34.4596 8.83585 37.5995C9.29581 39.3316 10.6513 40.6957 12.3723 41.1588C15.4917 42 28 42 28 42C28 42 40.5084 42 43.6277 41.1588C45.3489 40.6957 46.7041 39.3316 47.1641 37.5995C48 34.4596 48 27.9091 48 27.9091C48 27.9091 48 21.3585 47.1641 18.2189Z" fill="#ED1D24"/>
<path d="M23.9082 33.8564L34.3627 27.9093L23.9082 21.9616V33.8564Z" fill="white"/>
</svg>
